<svg xmlns:xlink="http://www.w3.org/1999/xlink" width="24" height="24" viewBox="0 0 32 32" fill="none" xmlns="http://www.w3.org/2000/svg" data-v-217b0798="">
                                    <path d="M24.19,11.09H18.46v1.64h5.73Z" fill="#161616"></path>
                                    <path d="M24.19,15.18H18.46v1.64h5.73Z" fill="#161616"></path>
                                    <path d="M24.19,19.27H18.46v1.64h5.73Z" fill="#161616"></path>
                                    <path d="M25.82,7H6.18A1.64,1.64,0,0,0,4.54,8.63V23.37A1.64,1.64,0,0,0,6.18,25H25.82a1.64,1.64,0,0,0,1.64-1.63V8.63A1.64,1.64,0,0,0,25.82,7ZM6.18,8.63h9V23.37h-9ZM16.82,23.37V8.63h9V23.37Z" fill="#161616"></path>
                                </svg>