<svg xmlns:xlink="http://www.w3.org/1999/xlink" data-v-6cdcf6c1="" width="16" height="16" viewBox="0 0 32 32" fill="none" xmlns="http://www.w3.org/2000/svg">
                                                    <path data-v-6cdcf6c1="" d="M11 11V21H21V11H11ZM19 19H13V13H19V19Z" fill="#FFFFFF"></path>
                                                    <path data-v-6cdcf6c1="" d="M30 13V11H26V8C26 6.9 25.1 6 24 6H21V2H19V6H13V2H11V6H8C6.9 6 6 6.9 6 8V11H2V13H6V19H2V21H6V24C6 25.1 6.9 26 8 26H11V30H13V26H19V30H21V26H24C25.1 26 26 25.1 26 24V21H30V19H26V13H30ZM24 24H8V8H24V24Z" fill="#FFFFFF"></path>
                                                </svg>