<svg xmlns:xlink="http://www.w3.org/1999/xlink" width="20" height="20" viewBox="0 0 16 16" fill="none" xmlns="http://www.w3.org/2000/svg" data-v-217b0798="">
                                        <path d="M7 6.00024V10.0002L10.5 8.00024L7 6.00024Z" fill="#161616">
                                        </path>
                                        <path d="M8.95068 13.3998L9.10069 14.3998C9.85069 14.2498 10.5507 13.9998 11.2007 13.6498L10.7007 12.7998C10.2007 13.0998 9.60068 13.2998 8.95068 13.3998Z" fill="#161616"></path>
                                        <path d="M12.2007 11.5504L12.9507 12.2003C13.4507 11.6503 13.8007 10.9504 14.0507 10.2504L13.1007 9.90039C12.9507 10.5004 12.6007 11.0504 12.2007 11.5504Z" fill="#161616"></path>
                                        <path d="M4.75 13.6002C5.4 13.9502 6.1 14.2502 6.85 14.3502L7 13.3502C6.35 13.2502 5.75 13.0002 5.2 12.7002L4.75 13.6002Z" fill="#161616"></path>
                                        <path d="M2.8499 9.90039L1.8999 10.2504C2.1499 10.9504 2.5499 11.6503 2.9999 12.2003L3.1499 12.0504L3.7499 11.5504C3.3999 11.0504 3.0499 10.5004 2.8499 9.90039Z" fill="#161616"></path>
                                        <path d="M14.4999 8C14.4999 7.2 14.3499 6.45005 14.0999 5.80005L13.1499 6.15002C13.3499 6.75002 13.4999 7.35005 13.4999 8.05005H14.4999V8Z" fill="#161616"></path>
                                        <path d="M13 3.80005C11.8 2.40005 10 1.5 8 1.5C6 1.5 4.2 2.39998 3 3.84998V2.75H2V6H5V5H3.4C4.4 3.5 6.05 2.5 8 2.5C9.7 2.5 11.2 3.24995 12.2 4.44995L13 3.80005Z" fill="#161616"></path>
                                    </svg>