<svg xmlns:xlink="http://www.w3.org/1999/xlink" xmlns="http://www.w3.org/2000/svg" width="20" height="20" viewBox="0 0 32 32" class="duo--Icon duo--IconFolder" data-v-217b0798="">
                                    <path d="M10.477 6a1.003 1.003 0 0 1 .807.41l2.024 2.77.6.82h13.938a.172.172 0 0 1 .154.182v15.636a.172.172 0 0 1-.154.182H4.154A.172.172 0 0 1 4 25.818V6.182A.172.172 0 0 1 4.154 6h6.323m0-2H4.154A2.168 2.168 0 0 0 2 6.182v19.636A2.168 2.168 0 0 0 4.154 28h23.692A2.168 2.168 0 0 0 30 25.818V10.182A2.168 2.168 0 0 0 27.846 8H14.923L12.9 5.23A3 3 0 0 0 10.477 4z" fill="#161616">
                                    </path>
                                </svg>